<svg width="40" height="37" viewBox="0 0 40 37" fill="none" xmlns="http://www.w3.org/2000/svg">
<path id="Vector" d="M1.42857 7.33831H38.5714C39.3604 7.33831 40 6.69354 40 5.89809V2.29755C40 1.5021 39.3604 0.85733 38.5714 0.85733H1.42857C0.639554 0.85733 0 1.5021 0 2.29755V5.89809C0 6.69354 0.639554 7.33831 1.42857 7.33831ZM1.42857 21.7405H38.5714C39.3604 21.7405 40 21.0957 40 20.3003V16.6997C40 15.9043 39.3604 15.2595 38.5714 15.2595H1.42857C0.639554 15.2595 0 15.9043 0 16.6997V20.3003C0 21.0957 0.639554 21.7405 1.42857 21.7405ZM1.42857 36.1427H38.5714C39.3604 36.1427 40 35.4979 40 34.7024V31.1019C40 30.3064 39.3604 29.6617 38.5714 29.6617H1.42857C0.639554 29.6617 0 30.3064 0 31.1019V34.7024C0 35.4979 0.639554 36.1427 1.42857 36.1427Z" fill="black"/>
</svg>
